<svg
  width="777"
  height="480">
  <defs>
      <style>
        #svg_5 {
          stroke-dasharray: 0;
          stroke-dashoffset: 3000;
          animation: dash 3s linear forwards;
        }

        @keyframes dash {
        to {
          stroke-dashoffset: 0;
          }
        }
      </style>
  </defs>
  <!-- Created with Vector Paint - http://www.vectorpaint.yaks.com/ https://chrome.google.com/webstore/detail/hnbpdiengicdefcjecjbnjnoifekhgdo -->
  <rect id="backgroundrect" width="100%" height="100%" x="0" y="0" fill="#FFFFFF" stroke="none"/>
  <g style="" class="currentLayer">
  <path
      fill="none"
      fill-opacity="1"
      stroke="#222222"
      stroke-opacity="1"
      stroke-width="2"
      stroke-dasharray="none"
      stroke-linejoin="round"
      stroke-linecap="butt"
      stroke-dashoffset=""
      fill-rule="nonzero"
      opacity="1"
      marker-start=""
      marker-mid=""
      marker-end=""
      id="svg_5"
      d="M 58.55483963754993 256.38709332568345 L 99.19354838709677 321.7741935483871 L 144.3548387096774 243.5483870967742 C 144.84516155454298 244.29031922517038 190.00645152979172 223.32257745094773 210.97419330401428 266.06451260609384 C 231.94193507823684 308.80644776123995 222.2645157978264 324.9354798952573 201.2967740236038 328.1612863220608 C 180.3290322493812 331.3870927488643 124.68387138702121 287.03225438031643 148.07096798134643 280.5806415267095 C 171.45806457567164 274.12902867310254 114.20000049990986 230.58064191125555 161.7806452952612 243.4838676184695 C 209.36129009061253 256.38709332568345 204.52258045040725 312.8387057947443 255.32903167256205 261.22580296588865 C 306.13548289471686 209.612900137033 291.6193539741012 228.96773869785386 291.1290322580645 228.2258064516129 C 291.6193539741012 228.96773869785386 287.58709594059684 312.83870579474427 287.0967741935484 312.0967741935484 C 287.58709594059684 312.83870579474427 289.1999991539986 199.1290292499217 334.36128912924727 232.19354512465733 C 379.52257910449595 265.25806099939297 361.78064375707686 311.2258025813425 361.2903225806452 310.48387096774195 C 361.78064375707686 311.2258025813425 394.03870802511165 165.25806176848522 435.9741915735568 218.4838678107426 C 477.909675122002 271.70967385299997 382.74838553129945 257.1935449323843 382.258064516129 256.4516129032258 C 382.74838553129945 257.1935449323843 378.716127497795 227.3548354844521 410.97419176582986 220.90322263084516 C 443.2322560338647 214.45160977723822 425.49032068644533 184.61290032930611 463.3935462013863 271.70967385299997 C 501.29677171632727 358.8064473766938 402.90967569882116 365.2580602303008 402.90967569882116 363.6451570168991 C 402.90967569882116 362.0322538034973 454.52257852767684 218.48386781074257 500.4903201096264 228.16128709115299"
      style="color: rgb(0, 0, 0);"/></g>
</svg>
