<?xml version="1.0" encoding="UTF-8" standalone="no"?>
<!-- Created with Inkscape (http://www.inkscape.org/) -->

<svg
   xmlns:dc="http://purl.org/dc/elements/1.1/"
   xmlns:cc="http://creativecommons.org/ns#"
   xmlns:rdf="http://www.w3.org/1999/02/22-rdf-syntax-ns#"
   xmlns:svg="http://www.w3.org/2000/svg"
   xmlns="http://www.w3.org/2000/svg"
   xmlns:sodipodi="http://sodipodi.sourceforge.net/DTD/sodipodi-0.dtd"
   xmlns:inkscape="http://www.inkscape.org/namespaces/inkscape"
   width="210mm"
   height="297mm"
   viewBox="0 0 210 297"
   version="1.1"
   id="svg8"
   sodipodi:docname="vongwai.svg"
   inkscape:version="0.92.3 (2405546, 2018-03-11)">
  <defs
     id="defs2" >
     <style>
     #path835
     {

       stroke-dasharray:700;
       stroke-dashoffset:600;
       transform: all 1s;
       animation : dash 1s linear infinite alternate ;
       stroke:red;
     }
     @keyframes dash
     {
       from{
         stroke-dashoffset:600;
       }
       to {
         stroke-dashoffset:0;
       }
     }
   </style>
  </defs>
  <sodipodi:namedview
     id="base"
     pagecolor="#ffffff"
     bordercolor="#666666"
     borderopacity="1.0"
     inkscape:pageopacity="0"
     inkscape:pageshadow="2"
     inkscape:zoom="0.78794643"
     inkscape:cx="822.77829"
     inkscape:cy="691.82909"
     inkscape:document-units="mm"
     inkscape:current-layer="layer1"
     showgrid="false"
     inkscape:snap-page="false"
     inkscape:object-nodes="true"
     inkscape:snap-nodes="false"
     inkscape:snap-others="false"
     inkscape:snap-grids="false"
     inkscape:snap-to-guides="false"
     inkscape:snap-global="false"
     inkscape:window-width="1920"
     inkscape:window-height="1017"
     inkscape:window-x="-8"
     inkscape:window-y="-8"
     inkscape:window-maximized="1"
     inkscape:pagecheckerboard="true"
     showborder="true"
     borderlayer="false" />
  <metadata
     id="metadata5">
    <rdf:RDF>
      <cc:Work
         rdf:about="">
        <dc:format>image/svg+xml</dc:format>
        <dc:type
           rdf:resource="http://purl.org/dc/dcmitype/StillImage" />
        <dc:title></dc:title>
      </cc:Work>
    </rdf:RDF>
  </metadata>
  <g
     inkscape:label="Layer 1"
     inkscape:groupmode="layer"
     id="layer1">
    <path
       style="fill:none;stroke:#000000;stroke-width:0.26458332px;stroke-linecap:butt;stroke-linejoin:miter;stroke-opacity:1;fill-opacity:0.71372551"
       d="m 23.840982,120.37526 c 0,2.87943 -0.166279,-0.32933 0.671577,3.0221 0.08144,0.32576 -0.07284,0.67957 0,1.00736 0.153566,0.69105 0.447718,1.34315 0.671577,2.01473 0.408508,1.22553 0.405092,1.281 1.007365,2.68631 0.09859,0.23004 0.185619,0.47135 0.335788,0.67157 0.189952,0.25327 0.554,0.37764 0.671578,0.67158 0.124709,0.31178 0,0.67158 0,1.00737 0,0.33579 0,0.67158 0,1.00736 0,1.52861 -0.158292,0.0192 0.335788,1.00737 0.05006,0.10011 0,0.22386 0,0.33579 0,0.33579 -0.08144,0.6816 0,1.00736 0.03839,0.15357 0.247984,0.20408 0.335788,0.33579 0.138833,0.20825 0.196956,0.46333 0.335788,0.67158 0.0878,0.13171 0.285732,0.18562 0.335788,0.33579 5.29e-4,0.002 -2.64e-4,1.00704 0,1.00736 0.07915,0.0791 0.256644,-0.0791 0.335791,0 0.158292,0.15829 -0.124177,0.48532 0,0.67158 0.175609,0.26341 0.529995,0.38841 0.671576,0.67158 0.100113,0.20022 -0.124174,0.48531 0,0.67157 0.138832,0.20825 0.494601,0.15882 0.671576,0.33579 0.07915,0.0791 -0.07915,0.25664 0,0.33579 0.07915,0.0791 0.229603,-0.0354 0.335788,0 2.432256,0.81075 -0.529405,-0.0968 1.007367,0.67158 0.100113,0.05 0.223858,0 0.335788,0 0.111929,0 0.223858,0 0.335788,0 0.44772,0 0.970631,0.24835 1.343154,0 0.186262,-0.12418 -0.05429,-0.4544 0,-0.67158 0.0607,-0.24281 0.223859,-0.44772 0.335788,-0.67158 0.11193,-0.22386 0.223859,-0.44772 0.335788,-0.67157 0.111932,-0.22386 0.185621,-0.47136 0.335791,-0.67158 0.189949,-0.25327 0.529995,-0.38842 0.671576,-0.67158 0.100113,-0.20022 -0.100113,-0.47135 0,-0.67157 0.05006,-0.10012 0.235675,0.05 0.335788,0 0.742447,-0.37123 0.104203,-0.20841 0.335788,-0.67158 0.07079,-0.14158 0.285734,-0.18562 0.33579,-0.33579 0.07079,-0.21237 -0.05429,-0.4544 0,-0.67158 0.0607,-0.24281 0.286703,-0.42615 0.335788,-0.67157 0.06585,-0.32927 -0.124708,-0.6956 0,-1.00737 0.117576,-0.29394 0.495967,-0.40816 0.671576,-0.67158 0.124175,-0.18626 -0.07079,-0.4592 0,-0.67157 0.07915,-0.23744 0.256644,-0.43414 0.335788,-0.67158 0.0354,-0.10619 -0.07914,-0.25664 0,-0.33579 0.07915,-0.0791 0.256644,0.0792 0.335788,0 0.07915,-0.0791 -0.05005,-0.23567 0,-0.33579 0.07079,-0.14158 0.264999,-0.19421 0.335791,-0.33579 0.05006,-0.10011 -0.05006,-0.23567 0,-0.33579 0.141581,-0.28315 0.529995,-0.38841 0.671576,-0.67157 0.05006,-0.10011 -0.05006,-0.23568 0,-0.33579 0.07079,-0.14158 0.264999,-0.19421 0.335788,-0.33579 0.05006,-0.10011 -0.02715,-0.2272 0,-0.33579 0.08585,-0.34338 0.249944,-0.66398 0.335788,-1.00736 0.0543,-0.21718 -0.100113,-0.47135 0,-0.67158 0.279905,-0.55981 0.671579,-0.15172 0.671579,-1.00736 0,-0.33579 0,-0.67158 0,-1.00737 0,-0.11193 -0.07915,-0.25664 0,-0.33579 0.07914,-0.0791 0.25664,0.0791 0.335788,0 0.07914,-0.0791 0,-0.22386 0,-0.33579 0,-0.33578 0,-0.67157 0,-1.00736 0,-0.22386 -0.186262,-0.54741 0,-0.67158 0.279392,-0.18626 0.671576,0 1.007364,0 0.33579,0 0.671578,0 1.007366,0 1.343155,0 2.686307,0 4.029462,0 3.239717,0 0.592309,0.25028 2.350518,-0.33579 0.210759,-0.0703 1.072833,0 1.343155,0 0.895437,0 1.790872,0 2.686309,0 0.281122,0 2.131923,-0.0729 2.350519,0 0.237437,0.0791 0.447717,0.22386 0.671576,0.33579 0.223858,0.11193 0.494601,0.15881 0.671578,0.33579 0.176975,0.17698 0.196956,0.46333 0.335788,0.67158 0.08781,0.1317 0.223859,0.22386 0.335788,0.33579 0.783506,0.7835 1.567014,1.56701 2.350519,2.35051 0.223859,0.22386 0.473808,0.42437 0.671579,0.67158 2.037937,2.54742 -0.482222,-0.46791 1.007364,2.01473 0.162882,0.27147 0.529997,0.38842 0.671578,0.67158 0.100111,0.20022 -0.07079,0.4592 0,0.67157 0.05005,0.15017 0.223859,0.22386 0.335788,0.33579 0.11193,0.22386 0.275085,0.42877 0.335788,0.67158 0.05429,0.21718 -0.124174,0.48532 0,0.67158 0.971915,1.45787 0.671576,-1.21846 0.671576,1.34315 0,1.1193 0,2.23859 0,3.35789 0,0.22386 0,0.44771 0,0.67157 0,0.22386 0.100113,0.47136 0,0.67158 -0.05006,0.10011 -0.25664,-0.0791 -0.335788,0 -0.07915,0.0791 0,0.22386 0,0.33579 -0.111929,0.11193 -0.204081,0.24798 -0.335788,0.33579 -0.06255,0.0417 -1.321636,0.65006 -1.343154,0.67157 -0.07915,0.0792 0.07915,0.25665 0,0.33579 -0.176975,0.17698 -0.456962,0.20702 -0.671576,0.33579 -0.346057,0.20763 -0.646404,0.4911 -1.007367,0.67158 -0.100113,0.0501 -0.223859,0 -0.335788,0 -0.447717,0 -0.904129,-0.0878 -1.343155,0 -0.155218,0.031 -0.194207,0.265 -0.335788,0.33579 -0.196731,0.0984 -1.431499,-0.0619 -1.678942,0 -0.242808,0.0607 -0.428768,0.27508 -0.671576,0.33578 -0.325763,0.0814 -0.671576,0 -1.007367,0 -1.007364,0 -2.014731,0 -3.022095,0 -0.671578,0 -1.343154,0 -2.01473,0 -0.11193,0 -0.223859,0 -0.335791,0 -0.111929,0 -0.235675,0.0501 -0.335788,0 -0.141581,-0.0708 -0.204081,-0.24798 -0.335788,-0.33578 -0.208248,-0.13884 -0.494601,-0.15881 -0.671576,-0.33579 -0.176977,-0.17698 -0.158813,-0.4946 -0.335788,-0.67158 -0.07915,-0.0791 -0.256643,0.0791 -0.33579,0 -0.848167,-0.84817 -0.12903,-0.38709 -0.335788,-1.00736 -0.07915,-0.23744 -0.275085,-0.42877 -0.335788,-0.67158 -0.05429,-0.21718 0,-0.44772 0,-0.67158 0,-0.22386 0,-0.44772 0,-0.67157 0,-0.89544 0,-1.79088 0,-2.68631 0,-0.78351 0,-1.56701 0,-2.35052 0,-0.22386 0,-0.44772 0,-0.67158 0,-0.11193 -0.0354,-0.2296 0,-0.33579 0.810752,-2.43225 -0.09681,0.52941 0.671576,-1.00736 0.05006,-0.10012 -0.07914,-0.25665 0,-0.33579 0.176977,-0.17698 0.532746,-0.12754 0.671578,-0.33579 1.063953,-1.59593 -1.28965,0.28228 0.335788,-1.34315 0.07914,-0.0792 0.256643,0.0791 0.335788,0 0.176977,-0.17698 0.196959,-0.46333 0.335788,-0.67158 0.263414,-0.39512 0.72244,-0.62746 1.007367,-1.00737 0.150169,-0.20022 0.158811,-0.4946 0.335788,-0.67157 0.176977,-0.17698 0.46333,-0.19696 0.671576,-0.33579 0.14233,-0.0949 0.9379,-0.86843 1.007366,-1.00737 0.172556,-0.34511 -0.335788,-0.77448 -0.335788,-1.00736 0,-0.11193 0.229603,0.0354 0.335788,0 0.237438,-0.0791 0.463331,-0.19696 0.671576,-0.33579 0.07868,-0.0525 0.415264,-0.5921 0.671579,-0.33579 0.07914,0.0791 0,0.22386 0,0.33579 0,0.11193 0,0.22386 0,0.33579 0,0.20011 -0.04123,2.26805 0,2.35052 0.05006,0.10011 0.256641,-0.0791 0.335788,0 0.176975,0.17697 0.185618,0.47135 0.335788,0.67157 0.18995,0.25327 0.529995,0.38842 0.671576,0.67158 0.100113,0.20023 -0.07079,0.45921 0,0.67158 0.100113,0.30034 0.529997,0.38841 0.671579,0.67157 0.297209,0.59443 -0.499465,0.11475 0.335788,0.67158 0.208245,0.13883 0.47135,0.18562 0.671576,0.33579 0.253267,0.18995 0.408164,0.49597 0.671578,0.67158 0.09313,0.0621 0.256641,-0.0791 0.335788,0 0.07915,0.0791 -0.07915,0.25664 0,0.33578 0.07915,0.0791 0.256641,-0.0791 0.335788,0 0.694759,0.69476 -1.061683,-0.0272 0.335788,0.67158 0.742368,0.37119 0.770792,0.33579 1.343155,0.33579 0.223859,0 0.447717,0 0.671576,0 0.111929,0 0.235678,-0.05 0.335788,0 1.397473,0.69874 -0.358968,-0.0232 0.335791,0.67158 0.07914,0.0791 0.223858,0 0.335788,0 0.223858,0 0.459205,0.0708 0.671576,0 0.150169,-0.0501 0.204081,-0.24799 0.335788,-0.33579 0.208248,-0.13883 0.434138,-0.25664 0.671578,-0.33579 0.106185,-0.0354 0.223859,0 0.335788,0 0.335788,-0.11193 0.678728,-0.20433 1.007364,-0.33579 1.300858,0.66007 0.434928,-0.55325 0.671579,-0.67158 0.200226,-0.10011 0.4544,0.0543 0.671576,0 0.973865,-0.24346 0.392962,-0.26197 1.007366,-0.67157 0.208246,-0.13883 0.494599,-0.15881 0.671576,-0.33579 0.07915,-0.0791 -0.05006,-0.23568 0,-0.33579 0.141582,-0.28316 0.495967,-0.40816 0.671576,-0.67158 0.138833,-0.20824 0.256644,-0.43413 0.335791,-0.67157 0.03539,-0.10619 -0.07915,-0.25664 0,-0.33579 0.176975,-0.17698 0.532744,-0.12754 0.671576,-0.33579 0.124174,-0.18626 -0.07079,-0.45921 0,-0.67158 0.349366,-1.0481 0.223859,0.11193 0.671576,-0.33578 0.176977,-0.17698 0.158814,-0.49461 0.335788,-0.67158 0.176977,-0.17698 0.494602,-0.15881 0.671579,-0.33579 0.176974,-0.17698 0.158811,-0.4946 0.335788,-0.67158 0.176977,-0.17697 0.494601,-0.15881 0.671576,-0.33578 0.158292,-0.1583 -0.158293,-0.51329 0,-0.67158 0.176977,-0.17698 0.494601,-0.15881 0.671578,-0.33579 0.176975,-0.17698 0.196956,-0.46333 0.335788,-0.67158 0.0878,-0.1317 0.223859,-0.22386 0.335788,-0.33579 0.11193,-0.11192 0.194207,-0.26499 0.335788,-0.33578 0.100113,-0.0501 0.256643,0.0791 0.335788,0 0.07915,-0.0791 -0.05005,-0.23568 0,-0.33579 0.07079,-0.14158 0.19421,-0.265 0.335791,-0.33579 0.100113,-0.0501 0.223859,0 0.335788,0 0.335788,0 0.688808,-0.10619 1.007364,0 0.150169,0.05 0.194209,0.265 0.335791,0.33579 0.10011,0.05 0.25664,-0.0791 0.335788,0 0.07914,0.0791 -0.05006,0.23567 0,0.33579 0.07079,0.14157 0.223858,0.22386 0.335788,0.33578 1.452382,1.45239 0.05263,-0.0889 1.007364,1.34316 0.08781,0.13171 0.264998,0.19421 0.33579,0.33579 0.100113,0.20022 -0.07079,0.4592 0,0.67157 0.07914,0.23744 0.256641,0.43414 0.335788,0.67158 0.100563,0.30169 -0.07732,0.69808 0,1.00737 0.08585,0.34338 0.249941,0.66398 0.335788,1.00736 0.02715,0.10859 0,0.22386 0,0.33579 0,0.22386 0,0.44772 0,0.67158 0,0.55964 0,1.11929 0,1.67894 0,1.79087 0,3.58174 0,5.37261 0,1.34316 0,2.68631 0,4.02947 0,0.44771 0,0.89543 0,1.34315 0,0.11193 0,0.44772 0,0.33579 0,-1.9028 0,-3.8056 0,-5.70841 0,-0.55964 0,-1.11929 0,-1.67894 0,-0.22386 -0.0368,-0.45076 0,-0.67157 0.05379,-0.32277 0.471972,-1.95131 0.671576,-2.35053 0.07079,-0.14158 0.247986,-0.20408 0.335791,-0.33578 0.277661,-0.4165 0.447717,-0.89544 0.671576,-1.34316 0.111929,-0.22386 0.256643,-0.43413 0.335788,-0.67157 0.0354,-0.10619 -0.05006,-0.23568 0,-0.33579 0.21237,-0.42475 0.794993,-0.58262 1.007366,-1.00737 0.100113,-0.20022 -0.100113,-0.47135 0,-0.67157 0.05006,-0.10012 0.256641,0.0791 0.335788,0 0.176975,-0.17698 0.256644,-0.43414 0.335788,-0.67158 0.0354,-0.10619 -0.07914,-0.25664 0,-0.33579 0.07914,-0.0791 0.256644,0.0791 0.335788,0 0.176978,-0.17698 0.158814,-0.4946 0.335788,-0.67158 0.07915,-0.0791 0.256644,0.0791 0.335791,0 0.07914,-0.0791 -0.100113,-0.28573 0,-0.33578 0.200223,-0.10012 0.47135,0.10011 0.671576,0 0.24879,-0.1244 1.476261,-1.61139 1.678943,-1.67895 0.222181,-0.0741 1.895483,0 2.350518,0 0.671576,0 1.343155,0 2.014731,0 0.658434,0 1.490506,-0.18843 2.01473,0.33579 0.945494,0.0209 0.08551,0.75708 0.335788,1.00737 0.176978,0.17697 0.532747,0.12754 0.671579,0.33579 0.124174,0.18626 0,0.44771 0,0.67157 0,0.55965 0,1.1193 0,1.67894 0,2.01473 0,4.02946 0,6.0442 0,0.2882 -0.05958,2.50758 0,2.6863 0.216178,0.64854 0.570511,0.11737 1.007364,0.33579 0.100113,0.0501 -0.05006,0.23568 0,0.33579 0.07079,0.14158 0.223859,0.22386 0.335791,0.33579 0.573225,0.57323 0.177495,0.33579 1.343152,0.33579 0.335788,0 0.707027,0.15017 1.007366,0 0.874493,-0.43725 0.62442,-0.91305 1.007364,-1.67894 0.07079,-0.14158 0.247984,-0.20408 0.335791,-0.33579 0.13883,-0.20825 0.207018,-0.45697 0.335788,-0.67158 0.703464,-1.17244 0.688189,-0.73802 1.007364,-2.01473 0.02715,-0.10859 0,-0.22386 0,-0.33579 0,-0.44772 -0.08781,-0.90413 0,-1.34315 0.03104,-0.15522 0.285731,-0.18562 0.335788,-0.33579 0.07079,-0.21237 -0.05429,-0.4544 0,-0.67158 0.0607,-0.24281 0.286705,-0.42615 0.335791,-0.67158 0.06585,-0.32926 -0.15017,-0.70702 0,-1.00736 0.111929,-0.22386 0.532743,-0.12754 0.67158,-0.33579 0.12417,-0.18626 -0.07079,-0.45921 0,-0.67158 0.05,-0.15017 0.22385,-0.22385 0.33578,-0.33578 0.11193,-0.11193 0.20408,-0.24799 0.33579,-0.33579 0.20825,-0.13883 0.53275,-0.12754 0.67158,-0.33579 0.12417,-0.18626 -0.0708,-0.45921 0,-0.67158 0.0501,-0.15017 0.22386,-0.22386 0.33579,-0.33579 0.11193,-0.11193 0.22386,-0.22386 0.33579,-0.33578 0.11193,-0.11193 0.22385,-0.22386 0.33578,-0.33579 0.11193,-0.11193 0.19421,-0.265 0.33579,-0.33579 0.10012,-0.0501 0.2296,0.0354 0.33579,0 0.23744,-0.0791 0.42877,-0.27509 0.67158,-0.33579 0.21717,-0.0543 0.44772,0 0.67157,0 0.44772,0 0.89544,0 1.34316,0 0.67158,0 1.34315,0 2.01473,0 0.11193,0 0.25664,-0.0791 0.33579,0 0.0791,0.0791 -0.0791,0.25664 0,0.33579 0.0791,0.0791 0.23568,-0.0501 0.33579,0 1.39747,0.69873 -0.35897,-0.0232 0.33579,0.67158 0.0791,0.0791 0.25664,-0.0792 0.33578,0 0.0792,0.0791 0.11193,0.33578 0,0.33578 -0.25028,0 -0.43413,-0.25664 -0.67157,-0.33578 -0.10619,-0.0354 -0.25664,0.0791 -0.33579,0 -0.17698,-0.17698 -0.11193,-0.55965 -0.33579,-0.67158 -0.30034,-0.15017 -0.68881,0.10618 -1.00736,0 -0.10619,-0.0354 0.0791,-0.25664 0,-0.33579 -0.17698,-0.17698 -0.43414,-0.25664 -0.67158,-0.33579 -0.10619,-0.0354 -0.25664,0.0791 -0.33579,0 -0.0791,-0.0791 0.0791,-0.25664 0,-0.33579 -0.0791,-0.0792 -0.22386,0 -0.33579,0 -0.11193,0 -0.22386,0 -0.33579,0 -0.72571,0 -1.01772,-0.10502 -1.67894,0.33579 -0.13171,0.0878 -0.265,0.19421 -0.33579,0.33579 -0.15829,0.31658 -0.15368,0.70385 -0.33579,1.00737 -0.16288,0.27146 -0.49596,0.40816 -0.67157,0.67157 -0.0621,0.0931 0.05,0.23568 0,0.33579 -0.18048,0.36096 -0.5217,0.63266 -0.67158,1.00737 -0.0407,0.10164 0,1.83652 0,2.01473 0,0.7835 0,1.56701 0,2.35051 0,0.33579 -0.10618,0.68881 0,1.00737 0.0354,0.10619 0.25664,-0.0791 0.33579,0 0.15829,0.15829 -0.0708,0.45921 0,0.67158 0.0791,0.23744 0.19695,0.46333 0.33579,0.67158 0.17561,0.26341 0.49596,0.40816 0.67157,0.67157 0.13883,0.20825 0.15882,0.4946 0.33579,0.67158 0.0792,0.0791 0.25664,-0.0791 0.33579,0 0.0791,0.0791 -0.0791,0.25664 0,0.33579 0.0791,0.0791 0.22386,0 0.33579,0 0.41351,0 0.62152,0.05 1.00737,-0.33579 0.17697,-0.17698 0.17943,-0.47614 0.33578,-0.67158 0.43125,-0.53906 1.19191,-0.92271 1.34316,-1.67894 0,-3.25226 -0.23744,1.0481 0.67157,-1.67894 0.14159,-0.42474 0,-0.89544 0,-1.34316 0,-0.7835 0,-1.56701 0,-2.35052 0,-0.33578 -0.0814,-0.6816 0,-1.00736 0.0384,-0.15357 0.28574,-0.18562 0.33579,-0.33579 0.0708,-0.21237 0,-0.44772 0,-0.67158 0,-0.33578 0,-0.67157 0,-1.00736 0,-0.11193 -0.0354,-0.22961 0,-0.33579 0.0791,-0.23744 0.25665,-0.43414 0.33579,-0.67158 0.0708,-0.21237 -0.10011,-0.47135 0,-0.67157 0.18048,-0.36097 0.4911,-0.64641 0.67158,-1.00737 0.71314,-1.42629 0.67157,-1.1424 0.67157,-2.01473 0,-0.5292 -0.0561,-1.73503 0.33579,-1.34316 0.23744,0.23744 0,0.67158 0,1.00737 0,0.33579 0,0.67158 0,1.00737 0,1.23122 0,2.46245 0,3.69367 0,0.33579 0.10619,0.68881 0,1.00737 -0.12762,0.38285 -0.52169,0.63266 -0.67157,1.00736 -0.0831,0.20785 0,0.44772 0,0.67158 0,0.55964 0,1.11929 0,1.67894 0,1.79087 0,3.58174 0,5.37262 0,0.55964 0,1.11929 0,1.67894 0,0.33579 0.0659,0.67809 0,1.00736 -0.0491,0.24542 -0.25665,0.43414 -0.33579,0.67158 -0.11,0.32999 0.1069,1.80093 0,2.01473 -0.14158,0.28316 -0.49597,0.40816 -0.67158,0.67158 -0.0998,0.14966 0.0664,1.74917 0,2.01473 0.29755,0.89822 -0.8572,0.55686 -1.00736,1.00736 -0.17698,0.53093 0.0791,1.12492 0,1.67895 -0.34823,2.43757 -0.21143,-0.9825 -1.00737,1.00736 -0.16628,0.4157 0.0878,0.90413 0,1.34316 -0.031,0.15521 -0.265,0.1942 -0.33579,0.33578 -0.15829,0.31659 -0.24994,0.66398 -0.33579,1.00737 -0.0271,0.10859 0.0501,0.23568 0,0.33579 -0.04,0.08 -1.32954,1.97389 -1.34315,2.01473 -0.10619,0.31856 0.10618,0.68881 0,1.00736 -0.0354,0.10619 -0.25664,-0.0791 -0.33579,0 -0.83241,0.83242 0.0189,0.45653 -0.33579,1.34316 -0.14988,0.3747 -0.4911,0.6464 -0.67158,1.00736 -0.05,0.10012 0.0501,0.23568 0,0.33579 -0.0708,0.14158 -0.26499,0.19421 -0.33578,0.33579 -0.10012,0.20023 0.15829,0.51328 0,0.67158 -0.17698,0.17697 -0.53275,0.12754 -0.67158,0.33578 -0.12417,0.18627 0.0708,0.45921 0,0.67158 -0.0501,0.15017 -0.265,0.19421 -0.33579,0.33579 -0.05,0.10011 0.0354,0.2296 0,0.33579 -0.0791,0.23744 -0.22386,0.44772 -0.33579,0.67158 -0.11193,0.22386 -0.15881,0.4946 -0.33579,0.67157 -0.35395,0.35396 -0.989197,0.31763 -1.343151,0.67158 -0.176975,0.17698 -0.158811,0.4946 -0.335788,0.67158 -0.07914,0.0791 -0.223859,0 -0.335788,0 -0.559647,0 -1.119296,0 -1.678943,0 -0.335788,0 -0.671576,0 -1.007364,0 -0.33579,0 -0.707027,0.15017 -1.007366,0 -2.244953,-1.12248 -0.734317,-0.52401 -1.007364,-1.34316 -0.07915,-0.23744 -0.207021,-0.45696 -0.335791,-0.67157 -0.207632,-0.34606 -0.543957,-0.62451 -0.671576,-1.00737 -0.07907,-0.2372 0,-1.94939 0,-2.35052 0,-0.59923 -0.02715,-1.0438 0.335788,-1.67894 0.235606,-0.41231 0.710713,-0.63655 1.007367,-1.00737 0.15635,-0.19543 0.190315,-0.46791 0.335788,-0.67157 0.416573,-0.5832 0.945599,-1.08262 1.343154,-1.67894 0.06209,-0.0931 -0.07915,-0.25665 0,-0.33579 0.285364,-0.28537 0.722001,-0.38622 1.007364,-0.67158 0.176978,-0.17698 0.158814,-0.4946 0.335788,-0.67158 0.176978,-0.17697 0.494602,-0.15881 0.671579,-0.33579 0.176974,-0.17697 0.12754,-0.53274 0.335788,-0.67157 0.186261,-0.12418 0.459206,0.0708 0.671576,0 0.15017,-0.0501 0.223859,-0.22386 0.335788,-0.33579 0.111929,-0.11193 0.223861,-0.22386 0.335791,-0.33579 0.282217,-0.28222 1.90593,-1.79713 2.01473,-2.01473 0.10011,-0.20023 -0.15829,-0.51328 0,-0.67158 0.17697,-0.17697 0.4946,-0.15881 0.67158,-0.33579 0.0791,-0.0791 -0.0791,-0.25664 0,-0.33579 0.0791,-0.0791 0.23567,0.0501 0.33578,0 0.14159,-0.0708 0.22386,-0.22385 0.33579,-0.33578 0.22386,-0.22386 0.40011,-0.5087 0.67158,-0.67158 0.30351,-0.18211 0.79499,-0.0526 1.00736,-0.33579 0.20148,-0.26863 -0.15016,-0.70702 0,-1.00736 0.11193,-0.22386 0.49461,-0.15882 0.67158,-0.33579 0.0792,-0.0792 -0.0791,-0.25665 0,-0.33579 0.17698,-0.17698 0.46333,-0.19696 0.67158,-0.33579 0.66521,0.0335 0.15881,-0.4946 0.33579,-0.67158 0.0791,-0.0791 0.23568,0.0501 0.33579,0 0.72059,-0.36029 0.0155,-0.36669 0.33579,-1.00736 0.05,-0.10011 0.25664,0.0791 0.33578,0 0.0792,-0.0791 -0.10011,-0.28573 0,-0.33579 0.26489,-0.30034 0.70703,0.15017 1.00737,0 0.14158,-0.0708 0.22386,-0.22386 0.33579,-0.33579 0.44772,-0.44772 0.89543,-0.89543 1.34315,-1.34315 0.33579,-0.33579 0.79499,-0.58262 1.00737,-1.00737 0.10011,-0.20022 -0.10012,-0.47135 0,-0.67157 0.05,-0.10012 0.25664,0.0791 0.33579,0 0.17697,-0.17698 0.15881,-0.49461 0.33578,-0.67158 0.0791,-0.0791 0.25665,0.0791 0.33579,0 0.0791,-0.0791 -0.0791,-0.25664 0,-0.33579 0.0791,-0.0791 0.22386,0 0.33579,0 0,-0.11193 -0.0791,-0.25664 0,-0.33579 0.0791,-0.0791 0.25664,0.0792 0.33579,0 0.0791,-0.0791 -0.0501,-0.23567 0,-0.33579 0.0708,-0.14158 0.265,-0.19421 0.33579,-0.33579 0.05,-0.10011 -0.0791,-0.25664 0,-0.33579 0.0791,-0.0791 0.25664,0.0791 0.33579,0 0.15829,-0.15829 -0.12418,-0.48531 0,-0.67157 0.17561,-0.26341 0.49596,-0.40816 0.67157,-0.67158 0.0953,-0.1429 -0.10385,-1.80703 0,-2.01473 0.0708,-0.14158 0.28574,-0.18562 0.33579,-0.33579 0.0644,-0.19317 0,-2.48727 0,-2.6863 0,-0.22386 -0.15829,-0.51329 0,-0.67158 0.15829,-0.15829 0.44772,0 0.67158,0 0.22386,0 0.4544,-0.0543 0.67157,0 1.17809,0.29452 0.48984,0.12635 0.67158,0.67158 0.79629,2.38885 0.67158,0.85438 0.67158,2.6863 0,0.89544 0,1.79087 0,2.68631 0,0.33579 -0.0659,0.6781 0,1.00736 0.0491,0.24543 0.27509,0.42877 0.33579,0.67158 0.18655,0.7462 -0.27983,0.83947 0,1.67895 0.12762,0.38285 0.49109,0.6464 0.67158,1.00736 0.10011,0.20023 -0.1583,0.51329 0,0.67158 0.56444,0.56444 0.7787,0.10713 1.34315,0.67157 0.0791,0.0791 -0.0791,0.25665 0,0.33579 0.17697,0.17698 0.44772,0.22386 0.67158,0.33579 0.22386,0.11193 0.43414,0.25664 0.67157,0.33579 0.10619,0.0354 0.22386,0 0.33579,0 0.22386,0 0.4544,0.0543 0.67158,0 1.33621,-0.33405 0.25619,-0.1766 0.67158,-1.00737 0.25028,-0.50056 0.75708,-0.84258 1.00736,-1.34315 0.15017,-0.30034 -0.15017,-0.70703 0,-1.00736 0.18048,-0.36097 0.5217,-0.63267 0.67158,-1.00737 0.67157,-1.67894 -0.33579,0 0,-1.00737 0.0791,-0.23743 0.27508,-0.42876 0.33579,-0.67157 0.0467,-0.18696 -0.058,-1.62097 0,-1.67895 0.17697,-0.17697 0.53274,-0.12754 0.67157,-0.33578 0.12418,-0.18627 0,-0.44772 0,-0.67158 0,-0.78351 0,-1.56701 0,-2.35052 0,-0.33579 -0.17276,-0.71943 0,-1.00736 0.20764,-0.34606 0.79973,-0.32553 1.00737,-0.67158 0.23035,-0.38392 0,-0.89544 0,-1.34316 0,-0.11192 -0.0791,-0.25664 0,-0.33578 0.0791,-0.0791 0.23567,-0.0501 0.33579,0 0.14158,0.0708 0.29739,0.18222 0.33578,0.33578 0.0501,0.20052 0,2.12471 0,2.35052 0,1.45509 0,2.91017 0,4.36525 0,0.33579 0,0.67158 0,1.00737 0,0.33579 -0.10618,0.68881 0,1.00736 0.12762,0.38286 0.4911,0.64641 0.67158,1.00737 0.0501,0.10011 -0.05,0.23567 0,0.33579 0.0708,0.14158 0.28573,0.18562 0.33579,0.33579 0.0708,0.21237 0,0.44772 0,0.67157 0,0.11193 -0.0576,0.23981 0,0.33579 0.55117,0.91862 0.76753,1.10332 1.34316,1.67894 0.78748,0.78749 -0.0791,-0.23743 0.33578,1.00737 0.0501,0.15017 0.22386,0.22386 0.33579,0.33579 0.11193,0.11193 0.20408,0.24798 0.33579,0.33579 0.20825,0.13883 0.4946,0.15881 0.67158,0.33579 0.14924,0.14923 -0.26117,0.63426 0.33579,0.33578 2.7554,-1.3777 0.54837,-0.0894 1.00736,-1.00736 0.0708,-0.14158 0.2974,-0.18222 0.33579,-0.33579 0.0814,-0.32576 -0.10619,-0.68881 0,-1.00737 0.12762,-0.38285 0.54396,-0.6245 0.67158,-1.00736 0.10618,-0.31856 -0.0659,-0.6781 0,-1.00737 0.0491,-0.24542 0.25664,-0.43413 0.33578,-0.67157 0.0354,-0.10619 0,-0.22386 0,-0.33579 0,-0.33579 0,-0.67158 0,-1.00737 0,-0.33579 0,-0.67158 0,-1.00736 0,-0.11193 -0.0416,-0.23187 0,-0.33579 0.18591,-0.46476 0.53407,-0.86185 0.67158,-1.34316 0.0923,-0.32286 0,-0.67157 0,-1.00736 0,-0.21054 -0.0671,-1.67934 0,-2.01473 0.0474,-0.23719 0.3187,-1.66186 0.67158,-2.01473 0.55965,-0.55965 0.33579,1.23122 0.33579,-0.67158 0,-0.11193 0,0.22386 0,0.33579 0,0.55965 0,1.11929 0,1.67894 0,0.55965 0,1.1193 0,1.67894 0,0.11193 -0.0792,0.25665 0,0.33579 0.0791,0.0791 0.25664,-0.0791 0.33579,0 0.44771,0.44772 -0.71232,0.32221 0.33578,0.67158 0.47193,0.15731 1.81739,-0.27001 2.01473,-0.33579 0.23744,-0.0791 0.44287,-0.23414 0.67158,-0.33579 0.77896,-0.3462 1.58808,-0.62615 2.35052,-1.00736 0.14158,-0.0708 0.21218,-0.23691 0.33579,-0.33579 0.43701,-0.34961 0.8775,-0.69693 1.34315,-1.00737 0.55965,-0.33578 1.1193,-0.67157 1.67895,-1.00736 0.33578,-0.11193 0.70385,-0.15368 1.00736,-0.33579 0.27147,-0.16288 0.41831,-0.48163 0.67158,-0.67158 0.20022,-0.15017 0.46333,-0.19695 0.67158,-0.33579 0.26341,-0.1756 0.38841,-0.52999 0.67157,-0.67157 0.10011,-0.0501 0.22386,0 0.33579,0 0.11193,0 0.22386,0 0.33579,0 0.44772,0 0.89543,0 1.34315,0 0.30502,0 2.13254,-0.0727 2.35052,0 0.15017,0.05 0.19421,0.26499 0.33579,0.33579 0.10011,0.05 0.25664,-0.0791 0.33579,0 0.0791,0.0791 -0.10011,0.28573 0,0.33578 0.20023,0.10012 0.4592,-0.0708 0.67158,0 1.0481,0.34937 -0.11193,0.22386 0.33579,0.67158 0.20067,0.20068 0.67157,-0.36295 0.67157,0.33579 0,0.11193 -0.22386,0 -0.33579,0 -0.22385,0 -0.44771,0 -0.67157,0 -0.89544,0 0.11192,0.11193 -0.33579,-0.33579 -0.0791,-0.0791 -0.22386,0 -0.33579,0 -0.55965,0 -1.1193,0 -1.67894,0 -0.36665,0 -1.46179,-0.0724 -1.67895,0 -4.36235,1.45412 -0.58662,0.0553 -2.01473,1.00737 -0.20824,0.13883 -0.47135,0.18562 -0.67157,0.33579 -0.25327,0.18994 -0.44772,0.44771 -0.67158,0.67157 -0.33579,0.33579 -0.67158,0.67158 -1.00737,1.00737 -0.0101,0.01 -1.27533,1.20752 -1.34315,1.34315 -0.0501,0.10011 0,0.22386 0,0.33579 0,0.22386 0.0708,0.45921 0,0.67158 -0.0501,0.15017 -0.265,0.1942 -0.33579,0.33578 -0.0511,0.1022 0,0.85615 0,1.00737 0,1.00736 0,2.01473 0,3.0221 0,0.32999 -0.0444,1.92589 0,2.01473 0.10011,0.20022 0.51329,-0.15829 0.67158,0 0.0791,0.0791 -0.0791,0.25664 0,0.33579 0.15829,0.15829 0.47135,-0.10012 0.67158,0 0.28316,0.14158 0.38841,0.52999 0.67157,0.67157 0.10012,0.0501 0.23568,-0.05 0.33579,0 1.04598,0.52299 -0.9343,1.07305 2.01473,0.33579 0.39152,-0.0979 0.63266,-0.52169 1.00737,-0.67158 1.085,-0.43399 2.26371,-0.59705 3.35788,-1.00736 2.28908,-0.85841 1.15757,-0.42162 3.35789,-1.67894 0.46833,-0.26762 1.10986,-0.42413 1.34315,-1.00737 0.0327,-0.0818 0,-1.75794 0,-2.01473 0,-0.11193 -0.0501,-0.23568 0,-0.33579 0.18048,-0.36096 0.4911,-0.6464 0.67158,-1.00736 0.0501,-0.10012 0,-0.22386 0,-0.33579 0,-0.22386 -0.0439,-0.45207 0,-0.67158 0.0694,-0.34708 0.2776,-0.65823 0.33579,-1.00736 0.0552,-0.33122 -0.10619,-0.68881 0,-1.00737 0.12762,-0.38286 0.49109,-0.6464 0.67157,-1.00736 0.0501,-0.10012 0,-0.22386 0,-0.33579 0,-0.22386 0,-0.44772 0,-0.67158 0,-0.22386 -0.0708,-0.45921 0,-0.67158 0.0791,-0.23743 0.25665,-0.43414 0.33579,-0.67157 0.0708,-0.21238 0,-0.89544 0,-0.67158 0,0.67158 0,1.34315 0,2.01473 0,0.33579 0.0475,0.67495 0,1.00737 -0.0653,0.45685 -0.25992,0.88793 -0.33579,1.34315 -0.0552,0.33122 0,0.67158 0,1.00736 0,0.89544 0,1.79088 0,2.68631 0,0.55965 0,1.1193 0,1.67894 0,0.22386 -0.10011,0.47136 0,0.67158 0.0501,0.10011 0.22961,-0.0354 0.33579,0 0.23744,0.0792 0.42877,0.27509 0.67158,0.33579 0.21717,0.0543 0.47135,-0.10011 0.67158,0 0.10011,0.0501 -0.0791,0.25664 0,0.33579 0.0791,0.0791 0.22385,0 0.33578,0 0.44772,0 0.89544,0 1.34316,0 0.11193,0 0.2296,0.0354 0.33579,0 0.23744,-0.0791 0.43414,-0.25664 0.67157,-0.33579 0.10619,-0.0354 0.25665,0.0791 0.33579,0 0.0791,-0.0791 -0.05,-0.23568 0,-0.33579 0.0708,-0.14158 0.22386,-0.22386 0.33579,-0.33579 0.11193,-0.11193 0.20408,-0.24798 0.33579,-0.33579 0.13377,-0.0892 1.31884,-0.63511 1.34315,-0.67157 0.12418,-0.18626 -0.0708,-0.45921 0,-0.67158 0.0501,-0.15017 0.22386,-0.22386 0.33579,-0.33579 0.22386,-0.22386 0.40816,-0.49597 0.67158,-0.67158 0.0931,-0.0621 0.25664,0.0791 0.33579,0 0.0215,-0.0215 0.62988,-1.2806 0.67157,-1.34315 0.0878,-0.13171 0.24799,-0.20408 0.33579,-0.33579 0.13883,-0.20824 0.15882,-0.4946 0.33579,-0.67157 0.44772,-0.33579 0.89544,-0.67158 1.34315,-1.00737 0,-0.11193 -0.0621,-0.24266 0,-0.33579 0.17561,-0.26341 0.53,-0.38841 0.67158,-0.67157 0.10011,-0.20023 -0.0439,-0.45207 0,-0.67158 0.1679,-0.83949 0.62989,-1.59557 1.00737,-2.35052 0.11193,-0.22386 0.2867,-0.42616 0.33579,-0.67158 0.0659,-0.32927 -0.15017,-0.70703 0,-1.00736 0.11192,-0.22386 0.53274,-0.54404 0.67157,-0.33579 0.24835,0.37252 0,0.89543 0,1.34315 0,0.33579 0,0.67158 0,1.00737 0,0.44772 0.23035,0.95923 0,1.34315 -0.20763,0.34606 -0.75526,0.35644 -1.00736,0.67158 -0.50334,0.62916 -0.33579,1.60688 -0.33579,2.35052 0,0.89543 0,1.79087 0,2.6863 0,0.55965 0,1.1193 0,1.67895 0,0.22386 -0.10011,0.47135 0,0.67157 0.10011,0.20023 0.47135,-0.10011 0.67158,0 0.14158,0.0708 0.1942,0.265 0.33578,0.33579 0.10012,0.0501 0.22386,0 0.33579,0 0.22386,0 0.44772,0 0.67158,0 0.67158,0 1.34315,0 2.01473,0 0.67158,0 1.34316,0 2.01473,0 0.11193,0 0.2272,0.0271 0.33579,0 0.34338,-0.0858 0.66398,-0.24994 1.00737,-0.33579 0.10858,-0.0271 0.23567,0.0501 0.33578,0 0.0576,-0.0288 0.99346,-0.96565 1.00737,-1.00736 0.10619,-0.31856 0,-0.67158 0,-1.00737 0,-0.7835 0,-1.56701 0,-2.35052 0,-1.56701 0,-3.13402 0,-4.70103 0,-0.0639 0.0622,-2.6492 0,-3.0221 -0.0582,-0.34914 -0.24994,-0.66398 -0.33579,-1.00737 -0.10354,-0.41415 0.0866,-1.24588 0,-1.67894 1.4064,-2.32425 -0.54396,-0.62451 -0.67158,-1.00736 -0.12337,-0.37012 0.0692,-1.93509 0,-2.35052 -0.0582,-0.34914 -0.26637,-0.66029 -0.33578,-1.00737 -0.43196,-2.15974 0.90288,1.46998 -0.67158,-1.67894 -0.10012,-0.20023 0.20022,-0.57146 0,-0.67158 -0.40045,-0.20022 -0.94271,0.20023 -1.34315,0 -0.10012,-0.05 0.0791,-0.25664 0,-0.33579 -0.0791,-0.0791 -0.22387,0 -0.3358,0 -0.11192,0 -0.22385,0 -0.33578,0 -0.67158,0 -1.34316,0 -2.01473,0 -0.33579,0 -0.70703,-0.15017 -1.00737,0 -0.20022,0.10012 0.12418,0.48532 0,0.67158 -0.17561,0.26341 -0.49597,0.40816 -0.67158,0.67158 -0.0184,0.0276 0,1.25984 0,1.34315 0,0.12332 -0.0135,1.32964 0,1.34316 0.0791,0.0791 0.23568,0.05 0.33579,0 0.36096,-0.18048 0.79973,-0.32553 1.00737,-0.67158 0.0131,-0.0219 0,-1.80195 0,-2.01473 0,-0.22386 0.10011,-0.47135 0,-0.67158 -0.0501,-0.10011 -0.22386,0 -0.33579,0 -0.5639,0 -0.50688,-0.0791 -1.00737,0.67158 -0.0386,0.0578 0,1.63101 0,1.67894 0,0.11193 0,-0.22386 0,-0.33579 0,-0.44772 0,-0.89543 0,-1.34315 0,-0.67158 0,-1.34316 0,-2.01473 0,-0.11193 0,-0.22386 0,-0.33579 0,-0.11193 0.0791,-0.25665 0,-0.33579 -0.14321,-0.14321 -0.84695,0.17538 -1.00736,0.33579 -0.0791,0.0791 0.0354,0.2296 0,0.33579 -0.0791,0.23744 -0.28671,0.42615 -0.33579,0.67157 -0.0659,0.32927 0,0.67158 0,1.00737 0,0.55965 0,1.11929 0,1.67894"
       id="path835"
       inkscape:connector-curvature="0" />
  </g>
</svg>
